<mxfile host="app.diagrams.net" modified="2024-04-04T09:47:22.791Z" agent="Mozilla/5.0 (Windows NT 10.0; Win64; x64) AppleWebKit/537.36 (KHTML, like Gecko) Chrome/123.0.0.0 Safari/537.36" etag="L1U-j2ZZn8DXZqozxoyV" version="24.0.8" type="device">
  <diagram name="Page-1" id="aYQZCQa9LVusC4ELpt-7">
    <mxGraphModel dx="1050" dy="522" grid="1" gridSize="10" guides="1" tooltips="1" connect="1" arrows="1" fold="1" page="1" pageScale="1" pageWidth="1100" pageHeight="850" math="0" shadow="0">
      <root>
        <mxCell id="0" />
        <mxCell id="1" parent="0" />
        <mxCell id="5UJ3cdvA66vtPdbWAUiA-1" value="" style="rounded=1;whiteSpace=wrap;html=1;" vertex="1" parent="1">
          <mxGeometry x="120" y="170" width="320" height="170" as="geometry" />
        </mxCell>
        <mxCell id="5UJ3cdvA66vtPdbWAUiA-2" value="" style="rounded=1;whiteSpace=wrap;html=1;" vertex="1" parent="1">
          <mxGeometry x="620" y="130" width="490" height="250" as="geometry" />
        </mxCell>
        <mxCell id="5UJ3cdvA66vtPdbWAUiA-3" value="&lt;b&gt;Network&lt;/b&gt;" style="ellipse;shape=cloud;whiteSpace=wrap;html=1;" vertex="1" parent="1">
          <mxGeometry x="470" y="215" width="120" height="80" as="geometry" />
        </mxCell>
        <mxCell id="5UJ3cdvA66vtPdbWAUiA-4" value="GUI" style="rounded=1;whiteSpace=wrap;html=1;fillColor=#ffe6cc;strokeColor=#d79b00;" vertex="1" parent="1">
          <mxGeometry x="240" y="185" width="80" height="60" as="geometry" />
        </mxCell>
        <mxCell id="5UJ3cdvA66vtPdbWAUiA-5" style="edgeStyle=orthogonalEdgeStyle;rounded=0;orthogonalLoop=1;jettySize=auto;html=1;exitX=1;exitY=0.5;exitDx=0;exitDy=0;entryX=0.16;entryY=0.55;entryDx=0;entryDy=0;entryPerimeter=0;" edge="1" parent="1" source="5UJ3cdvA66vtPdbWAUiA-4" target="5UJ3cdvA66vtPdbWAUiA-3">
          <mxGeometry relative="1" as="geometry" />
        </mxCell>
        <mxCell id="5UJ3cdvA66vtPdbWAUiA-6" value="" style="edgeStyle=orthogonalEdgeStyle;rounded=0;orthogonalLoop=1;jettySize=auto;html=1;" edge="1" parent="1" source="5UJ3cdvA66vtPdbWAUiA-12" target="5UJ3cdvA66vtPdbWAUiA-14">
          <mxGeometry relative="1" as="geometry" />
        </mxCell>
        <mxCell id="5UJ3cdvA66vtPdbWAUiA-7" value="" style="edgeStyle=orthogonalEdgeStyle;rounded=0;orthogonalLoop=1;jettySize=auto;html=1;" edge="1" parent="1" source="5UJ3cdvA66vtPdbWAUiA-12" target="5UJ3cdvA66vtPdbWAUiA-14">
          <mxGeometry relative="1" as="geometry" />
        </mxCell>
        <mxCell id="5UJ3cdvA66vtPdbWAUiA-8" value="Not Registered" style="edgeLabel;html=1;align=center;verticalAlign=middle;resizable=0;points=[];" vertex="1" connectable="0" parent="5UJ3cdvA66vtPdbWAUiA-7">
          <mxGeometry x="-0.1413" relative="1" as="geometry">
            <mxPoint as="offset" />
          </mxGeometry>
        </mxCell>
        <mxCell id="5UJ3cdvA66vtPdbWAUiA-9" style="edgeStyle=orthogonalEdgeStyle;rounded=0;orthogonalLoop=1;jettySize=auto;html=1;exitX=1;exitY=0.5;exitDx=0;exitDy=0;exitPerimeter=0;" edge="1" parent="1" source="5UJ3cdvA66vtPdbWAUiA-12" target="5UJ3cdvA66vtPdbWAUiA-15">
          <mxGeometry relative="1" as="geometry" />
        </mxCell>
        <mxCell id="5UJ3cdvA66vtPdbWAUiA-10" value="Text" style="edgeLabel;html=1;align=center;verticalAlign=middle;resizable=0;points=[];" vertex="1" connectable="0" parent="5UJ3cdvA66vtPdbWAUiA-9">
          <mxGeometry x="-0.0945" relative="1" as="geometry">
            <mxPoint as="offset" />
          </mxGeometry>
        </mxCell>
        <mxCell id="5UJ3cdvA66vtPdbWAUiA-11" value="Registered" style="edgeLabel;html=1;align=center;verticalAlign=middle;resizable=0;points=[];" vertex="1" connectable="0" parent="5UJ3cdvA66vtPdbWAUiA-9">
          <mxGeometry x="-0.0945" y="3" relative="1" as="geometry">
            <mxPoint as="offset" />
          </mxGeometry>
        </mxCell>
        <mxCell id="5UJ3cdvA66vtPdbWAUiA-12" value="Check IP" style="shape=cylinder3;whiteSpace=wrap;html=1;boundedLbl=1;backgroundOutline=1;size=15;fillColor=#dae8fc;strokeColor=#6c8ebf;" vertex="1" parent="1">
          <mxGeometry x="640" y="160" width="60" height="80" as="geometry" />
        </mxCell>
        <mxCell id="5UJ3cdvA66vtPdbWAUiA-13" style="edgeStyle=orthogonalEdgeStyle;rounded=0;orthogonalLoop=1;jettySize=auto;html=1;exitX=0.875;exitY=0.5;exitDx=0;exitDy=0;exitPerimeter=0;entryX=0;entryY=0.5;entryDx=0;entryDy=0;entryPerimeter=0;" edge="1" parent="1" source="5UJ3cdvA66vtPdbWAUiA-3" target="5UJ3cdvA66vtPdbWAUiA-12">
          <mxGeometry relative="1" as="geometry" />
        </mxCell>
        <mxCell id="5UJ3cdvA66vtPdbWAUiA-23" style="edgeStyle=orthogonalEdgeStyle;rounded=0;orthogonalLoop=1;jettySize=auto;html=1;exitX=1;exitY=0.5;exitDx=0;exitDy=0;entryX=0;entryY=0.5;entryDx=0;entryDy=0;" edge="1" parent="1" source="5UJ3cdvA66vtPdbWAUiA-14" target="5UJ3cdvA66vtPdbWAUiA-22">
          <mxGeometry relative="1" as="geometry" />
        </mxCell>
        <mxCell id="5UJ3cdvA66vtPdbWAUiA-14" value="Display Code" style="whiteSpace=wrap;html=1;fillColor=#f8cecc;strokeColor=#b85450;" vertex="1" parent="1">
          <mxGeometry x="800" y="147" width="120" height="30" as="geometry" />
        </mxCell>
        <mxCell id="5UJ3cdvA66vtPdbWAUiA-15" value="Connection Complete" style="whiteSpace=wrap;html=1;fillColor=#dae8fc;strokeColor=#6c8ebf;" vertex="1" parent="1">
          <mxGeometry x="800" y="224" width="120" height="30" as="geometry" />
        </mxCell>
        <mxCell id="5UJ3cdvA66vtPdbWAUiA-16" value="Client" style="text;html=1;align=center;verticalAlign=middle;whiteSpace=wrap;rounded=0;" vertex="1" parent="1">
          <mxGeometry x="120" y="170" width="60" height="30" as="geometry" />
        </mxCell>
        <mxCell id="5UJ3cdvA66vtPdbWAUiA-17" value="Server" style="text;html=1;align=center;verticalAlign=middle;whiteSpace=wrap;rounded=0;" vertex="1" parent="1">
          <mxGeometry x="620" y="132" width="60" height="30" as="geometry" />
        </mxCell>
        <mxCell id="5UJ3cdvA66vtPdbWAUiA-26" style="edgeStyle=orthogonalEdgeStyle;rounded=0;orthogonalLoop=1;jettySize=auto;html=1;exitX=1;exitY=0.5;exitDx=0;exitDy=0;entryX=0.5;entryY=1;entryDx=0;entryDy=0;" edge="1" parent="1" source="5UJ3cdvA66vtPdbWAUiA-22" target="5UJ3cdvA66vtPdbWAUiA-24">
          <mxGeometry relative="1" as="geometry" />
        </mxCell>
        <mxCell id="5UJ3cdvA66vtPdbWAUiA-22" value="Encrypt Msg" style="whiteSpace=wrap;html=1;fillColor=#f8cecc;strokeColor=#b85450;" vertex="1" parent="1">
          <mxGeometry x="950" y="147" width="120" height="30" as="geometry" />
        </mxCell>
        <mxCell id="5UJ3cdvA66vtPdbWAUiA-30" style="edgeStyle=orthogonalEdgeStyle;rounded=0;orthogonalLoop=1;jettySize=auto;html=1;exitX=0.5;exitY=0;exitDx=0;exitDy=0;entryX=0.5;entryY=1;entryDx=0;entryDy=0;" edge="1" parent="1" source="5UJ3cdvA66vtPdbWAUiA-24" target="5UJ3cdvA66vtPdbWAUiA-28">
          <mxGeometry relative="1" as="geometry" />
        </mxCell>
        <mxCell id="5UJ3cdvA66vtPdbWAUiA-24" value="Decrypt Msg" style="whiteSpace=wrap;html=1;fillColor=#f8cecc;strokeColor=#b85450;" vertex="1" parent="1">
          <mxGeometry x="140" y="299" width="120" height="30" as="geometry" />
        </mxCell>
        <mxCell id="5UJ3cdvA66vtPdbWAUiA-32" style="edgeStyle=orthogonalEdgeStyle;rounded=0;orthogonalLoop=1;jettySize=auto;html=1;exitX=1;exitY=0.5;exitDx=0;exitDy=0;entryX=0.5;entryY=0;entryDx=0;entryDy=0;" edge="1" parent="1" source="5UJ3cdvA66vtPdbWAUiA-28" target="5UJ3cdvA66vtPdbWAUiA-31">
          <mxGeometry relative="1" as="geometry" />
        </mxCell>
        <mxCell id="5UJ3cdvA66vtPdbWAUiA-28" value="Show Code Entry" style="whiteSpace=wrap;html=1;fillColor=#f8cecc;strokeColor=#b85450;" vertex="1" parent="1">
          <mxGeometry x="140" y="254" width="120" height="30" as="geometry" />
        </mxCell>
        <mxCell id="5UJ3cdvA66vtPdbWAUiA-35" style="edgeStyle=orthogonalEdgeStyle;rounded=0;orthogonalLoop=1;jettySize=auto;html=1;exitX=1;exitY=0.5;exitDx=0;exitDy=0;entryX=0;entryY=0.5;entryDx=0;entryDy=0;" edge="1" parent="1" source="5UJ3cdvA66vtPdbWAUiA-31" target="5UJ3cdvA66vtPdbWAUiA-34">
          <mxGeometry relative="1" as="geometry" />
        </mxCell>
        <mxCell id="5UJ3cdvA66vtPdbWAUiA-31" value="Send Encrypted Code" style="whiteSpace=wrap;html=1;fillColor=#f8cecc;strokeColor=#b85450;" vertex="1" parent="1">
          <mxGeometry x="280" y="280" width="120" height="30" as="geometry" />
        </mxCell>
        <mxCell id="5UJ3cdvA66vtPdbWAUiA-51" style="edgeStyle=orthogonalEdgeStyle;rounded=0;orthogonalLoop=1;jettySize=auto;html=1;exitX=1;exitY=0.75;exitDx=0;exitDy=0;entryX=0;entryY=0.5;entryDx=0;entryDy=0;" edge="1" parent="1" source="5UJ3cdvA66vtPdbWAUiA-34" target="5UJ3cdvA66vtPdbWAUiA-42">
          <mxGeometry relative="1" as="geometry" />
        </mxCell>
        <mxCell id="5UJ3cdvA66vtPdbWAUiA-53" value="Incorrect" style="edgeLabel;html=1;align=center;verticalAlign=middle;resizable=0;points=[];" vertex="1" connectable="0" parent="5UJ3cdvA66vtPdbWAUiA-51">
          <mxGeometry x="0.2608" y="-3" relative="1" as="geometry">
            <mxPoint as="offset" />
          </mxGeometry>
        </mxCell>
        <mxCell id="5UJ3cdvA66vtPdbWAUiA-34" value="Verify Code" style="whiteSpace=wrap;html=1;fillColor=#f8cecc;strokeColor=#b85450;" vertex="1" parent="1">
          <mxGeometry x="640" y="310" width="120" height="30" as="geometry" />
        </mxCell>
        <mxCell id="5UJ3cdvA66vtPdbWAUiA-42" value="Disconnect" style="whiteSpace=wrap;html=1;fillColor=#fa6800;strokeColor=#C73500;fontColor=#000000;" vertex="1" parent="1">
          <mxGeometry x="930" y="310" width="120" height="30" as="geometry" />
        </mxCell>
        <mxCell id="5UJ3cdvA66vtPdbWAUiA-48" style="edgeStyle=orthogonalEdgeStyle;rounded=0;orthogonalLoop=1;jettySize=auto;html=1;exitX=0.5;exitY=0;exitDx=0;exitDy=0;exitPerimeter=0;entryX=0.5;entryY=1;entryDx=0;entryDy=0;" edge="1" parent="1" source="5UJ3cdvA66vtPdbWAUiA-46" target="5UJ3cdvA66vtPdbWAUiA-15">
          <mxGeometry relative="1" as="geometry" />
        </mxCell>
        <mxCell id="5UJ3cdvA66vtPdbWAUiA-46" value="Add IP to db" style="shape=cylinder3;whiteSpace=wrap;html=1;boundedLbl=1;backgroundOutline=1;size=15;fillColor=#dae8fc;strokeColor=#6c8ebf;" vertex="1" parent="1">
          <mxGeometry x="810" y="266" width="60" height="54" as="geometry" />
        </mxCell>
        <mxCell id="5UJ3cdvA66vtPdbWAUiA-47" style="edgeStyle=orthogonalEdgeStyle;rounded=0;orthogonalLoop=1;jettySize=auto;html=1;exitX=1;exitY=0;exitDx=0;exitDy=0;entryX=0;entryY=0;entryDx=0;entryDy=21;entryPerimeter=0;" edge="1" parent="1" source="5UJ3cdvA66vtPdbWAUiA-34" target="5UJ3cdvA66vtPdbWAUiA-46">
          <mxGeometry relative="1" as="geometry" />
        </mxCell>
        <mxCell id="5UJ3cdvA66vtPdbWAUiA-49" value="Correct" style="edgeLabel;html=1;align=center;verticalAlign=middle;resizable=0;points=[];" vertex="1" connectable="0" parent="5UJ3cdvA66vtPdbWAUiA-47">
          <mxGeometry x="0.0521" y="-2" relative="1" as="geometry">
            <mxPoint as="offset" />
          </mxGeometry>
        </mxCell>
      </root>
    </mxGraphModel>
  </diagram>
</mxfile>
